# 3ds Max Wavefront OBJ Exporter v0.97b - (c)2007 guruware
# File Created: 27.07.2020 11:19:52

mtllib platformComplete.mtl

#
# object plarformComplete
#

v  1648.5527 -744.3588 -0.0002
v  -1318.5305 876.9321 0.0001
v  -1656.4473 681.9155 0.0001
v  1486.6162 -842.5925 -0.0002
v  -1656.4473 613.5967 0.0001
v  866.5981 -842.5925 -0.0002
v  1648.5527 -672.2043 -0.0001
v  -1179.0859 957.4075 0.0001
# 8 vertices

vn 0.0000 -0.0000 1.0000
# 1 vertex normals

vt 1.0000 0.0546 0.0000
vt 0.1022 0.9553 0.0000
vt 0.0000 0.8469 0.0000
vt 0.9510 0.0000 0.0000
vt 0.0000 0.8090 0.0000
vt 0.7634 0.0000 0.0000
vt 1.0000 0.0947 0.0000
vt 0.1444 1.0000 0.0000
# 8 texture coords

o plarformComplete
g plarformComplete
usemtl 20___Default
f 1/1/1 2/2/1 3/3/1 4/4/1 
f 3/3/1 5/5/1 6/6/1 4/4/1 
f 1/1/1 7/7/1 8/8/1 2/2/1 
# 3 polygons

