# 3ds Max Wavefront OBJ Exporter v0.97b - (c)2007 guruware
# File Created: 16.07.2020 14:43:07

mtllib Station_EntranceR.mtl

#
# object Station_EntranceR
#

v  2182.6060 1363.8232 0.0002
v  2181.9446 1563.9624 0.0002
v  1709.5065 1836.0228 0.0000
v  1525.0404 1836.0228 0.0000
v  1526.9744 1603.9133 0.0000
v  2065.8516 1296.0228 0.0002
# 6 vertices

vn -0.0000 0.0000 1.0000
# 1 vertex normals

vt 0.0349 0.1256 0.0000
vt 0.0358 0.4962 0.0000
vt 0.7156 1.0000 0.0000
vt 0.9810 1.0000 0.0000
vt 0.9782 0.5702 0.0000
vt 0.2029 0.0000 0.0000
# 6 texture coords

o Station_EntranceR
g Station_EntranceR
usemtl 14___Default
f 1/1/1 2/2/1 3/3/1 4/4/1 
f 1/1/1 4/4/1 5/5/1 6/6/1 
# 2 polygons

