# 3ds Max Wavefront OBJ Exporter v0.97b - (c)2007 guruware
# File Created: 14.07.2020 13:59:19

mtllib IC.mtl

#
# object IC
#

v  -498.0573 270.2824 0.0001
v  489.2704 -291.2763 -0.0000
v  489.2704 -165.7549 0.0000
v  -390.8830 341.7395 0.0001
v  -498.9637 198.0491 0.0001
v  418.1500 -332.0458 -0.0000
# 6 vertices

vn -0.0000 -0.0000 1.0000
vn 0.0000 -0.0000 1.0000
# 2 vertex normals

vt 0.0358 0.7520 0.0000
vt 1.0000 0.2036 0.0000
vt 1.0000 0.3262 0.0000
vt 0.1405 0.8218 0.0000
vt 0.0349 0.6815 0.0000
vt 0.9305 0.1638 0.0000
# 6 texture coords

o IC
g IC
usemtl 07___Default
f 1/1/1 2/2/2 3/3/2 4/4/2 
f 1/1/1 5/5/1 6/6/1 2/2/2 
# 2 polygons

