# 3ds Max Wavefront OBJ Exporter v0.97b - (c)2007 guruware
# File Created: 14.07.2020 14:06:55

mtllib ICE.mtl

#
# object ICE
#

v  -495.6487 275.0511 0.0001
v  -495.6487 195.4922 0.0000
v  407.4642 -328.1522 -0.0000
v  516.9313 -291.6122 -0.0000
v  444.1342 -160.8500 -0.0000
v  -398.5149 326.6321 0.0001
# 6 vertices

vn -0.0000 -0.0000 1.0000
vn 0.0000 -0.0000 1.0000
# 2 vertex normals

vt 0.0000 0.7850 0.0000
vt 0.0000 0.7073 0.0000
vt 0.8819 0.1959 0.0000
vt 0.9888 0.2316 0.0000
vt 0.9178 0.3593 0.0000
vt 0.0949 0.8354 0.0000
# 6 texture coords

o ICE
g ICE
usemtl 08___Default
f 1/1/1 2/2/1 3/3/2 4/4/2 
f 4/4/2 5/5/2 6/6/2 1/1/1 
# 2 polygons

